<svg width="74" height="74" viewBox="0 0 74 74" fill="none" xmlns="http://www.w3.org/2000/svg">
<path opacity="0.1" d="M34.2188 2.69051C35.7695 1.19038 38.2305 1.19038 39.7812 2.69052L44.7416 7.48921C45.6283 8.34705 46.8613 8.74768 48.0829 8.57488L54.9166 7.60831C57.0529 7.30614 59.0439 8.75268 59.4166 10.8778L60.6091 17.6756C60.8222 18.8909 61.5843 19.9397 62.6742 20.518L68.7708 23.7527C70.6767 24.7639 71.4372 27.1045 70.4897 29.0428L67.4587 35.2433C66.9169 36.3518 66.9169 37.6482 67.4587 38.7567L70.4897 44.9571C71.4372 46.8955 70.6767 49.236 68.7708 50.2473L62.6742 53.482C61.5843 54.0603 60.8222 55.1091 60.6091 56.3244L59.4166 63.1222C59.0439 65.2473 57.0529 66.6939 54.9166 66.3917L48.083 65.4251C46.8613 65.2523 45.6283 65.653 44.7416 66.5108L39.7812 71.3095C38.2305 72.8096 35.7695 72.8096 34.2188 71.3095L29.2584 66.5108C28.3717 65.653 27.1387 65.2523 25.9171 65.4251L19.0834 66.3917C16.9471 66.6939 14.9561 65.2473 14.5834 63.1222L13.3909 56.3244C13.1778 55.1091 12.4157 54.0603 11.3258 53.482L5.22917 50.2473C3.32327 49.236 2.56279 46.8955 3.51031 44.9572L6.54129 38.7567C7.08313 37.6482 7.08313 36.3518 6.54129 35.2433L3.51031 29.0428C2.56278 27.1045 3.32327 24.764 5.22918 23.7527L11.3258 20.518C12.4157 19.9397 13.1778 18.8909 13.3909 17.6756L14.5834 10.8778C14.9561 8.75267 16.9471 7.30614 19.0834 7.60831L25.917 8.57488C27.1387 8.74768 28.3717 8.34705 29.2584 7.4892L34.2188 2.69051Z" fill="#2BB2C1"/>
<path opacity="0.5" d="M40.6009 50.3738C40.6009 51.5858 42.138 52.2531 43.1618 51.4856L48.7407 47.3039C49.0457 47.0761 49.2252 46.7116 49.2252 46.3237V29.3531C49.2252 28.8973 48.9775 28.4795 48.5831 28.2726C48.4146 28.1846 48.2311 28.1409 48.0492 28.1409C47.8046 28.1409 47.5623 28.2193 47.3577 28.3728L41.176 33.0063C40.8119 33.2791 40.6009 33.6872 40.6009 34.1182V50.3738ZM31.9765 48.0192C31.9765 48.4499 32.1874 48.8578 32.551 49.1307L35.6872 51.4839C36.7108 52.2521 38.2488 51.5849 38.2488 50.3725V34.1169C38.2488 33.6862 38.0379 33.2784 37.6742 33.0054L34.5381 30.6522C33.5144 29.8841 31.9765 30.5512 31.9765 31.7636V48.0192ZM21.6421 53.8684C22.0365 54.0744 22.5077 54.0365 22.8668 53.769L29.0486 49.1404C29.413 48.8675 29.6244 48.4593 29.6244 48.028V31.7719C29.6244 30.5603 28.0878 29.8927 27.0639 30.6596L21.4845 34.8378C21.1795 35.0657 21 35.4301 21 35.818V52.7888C21 53.2445 21.2478 53.6623 21.6421 53.8684Z" fill="#2BB3C1"/>
<path d="M44.9999 19C40.5887 19 37 22.4317 37 26.65C37 28.4662 37.6819 30.2289 38.9261 31.6216C39.0682 31.776 42.4211 35.4191 43.5411 36.4402C43.9501 36.8132 44.4749 37 44.9999 37C45.5251 37 46.0499 36.8132 46.4594 36.4402C47.7614 35.2526 50.9412 31.7669 51.0805 31.6139C52.3181 30.2288 53 28.4662 53 26.65C53 22.4317 49.4112 19 44.9999 19ZM44.9999 28.9C43.7008 28.9 42.6471 27.8924 42.6471 26.65C42.6471 25.4075 43.7008 24.4 44.9999 24.4C46.2992 24.4 47.3529 25.4075 47.3529 26.65C47.3529 27.8924 46.2992 28.9 44.9999 28.9Z" fill="#078A98"/>
</svg>
