<svg width="74" height="74" viewBox="0 0 74 74" fill="none" xmlns="http://www.w3.org/2000/svg">
<path opacity="0.1" d="M34.2188 2.69051C35.7695 1.19038 38.2305 1.19038 39.7812 2.69052L44.7416 7.48921C45.6283 8.34705 46.8613 8.74768 48.0829 8.57488L54.9166 7.60831C57.0529 7.30614 59.0439 8.75268 59.4166 10.8778L60.6091 17.6756C60.8222 18.8909 61.5843 19.9397 62.6742 20.518L68.7708 23.7527C70.6767 24.7639 71.4372 27.1045 70.4897 29.0428L67.4587 35.2433C66.9169 36.3518 66.9169 37.6482 67.4587 38.7567L70.4897 44.9571C71.4372 46.8955 70.6767 49.236 68.7708 50.2473L62.6742 53.482C61.5843 54.0603 60.8222 55.1091 60.6091 56.3244L59.4166 63.1222C59.0439 65.2473 57.0529 66.6939 54.9166 66.3917L48.083 65.4251C46.8613 65.2523 45.6283 65.653 44.7416 66.5108L39.7812 71.3095C38.2305 72.8096 35.7695 72.8096 34.2188 71.3095L29.2584 66.5108C28.3717 65.653 27.1387 65.2523 25.9171 65.4251L19.0834 66.3917C16.9471 66.6939 14.9561 65.2473 14.5834 63.1222L13.3909 56.3244C13.1778 55.1091 12.4157 54.0603 11.3258 53.482L5.22917 50.2473C3.32327 49.236 2.56279 46.8955 3.51031 44.9572L6.54129 38.7567C7.08313 37.6482 7.08313 36.3518 6.54129 35.2433L3.51031 29.0428C2.56278 27.1045 3.32327 24.764 5.22918 23.7527L11.3258 20.518C12.4157 19.9397 13.1778 18.8909 13.3909 17.6756L14.5834 10.8778C14.9561 8.75267 16.9471 7.30614 19.0834 7.60831L25.917 8.57488C27.1387 8.74768 28.3717 8.34705 29.2584 7.4892L34.2188 2.69051Z" fill="#876CC2"/>
<path fill-rule="evenodd" clip-rule="evenodd" d="M32.5275 23.3261C30.7717 23.8941 30.1133 26.0337 31.0569 28.1051C31.9994 30.1741 35.8424 31.6867 35.8424 31.6867C35.8424 31.6867 39.8779 30.1741 40.8205 28.1051C41.764 26.0337 41.1056 23.8941 39.3498 23.3261C38.2447 22.9687 36.9682 23.319 35.9387 24.1443C35.9387 24.1443 33.6326 22.9687 32.5275 23.3261Z" fill="#6A35E4" stroke="#6A35E4" stroke-linecap="round" stroke-linejoin="round"/>
<path d="M39.7969 48.7497C41.0838 49.438 42.5652 49.8038 44.1288 49.7432C48.8197 49.5613 52.4751 45.6112 52.2932 40.9203C52.1114 36.2294 48.1613 32.5741 43.4704 32.7559C38.7795 32.9378 35.1241 36.8879 35.306 41.5788C35.3724 43.2929 35.942 44.8687 36.8671 46.1696" stroke="#BC9FFF" stroke-width="1.8" stroke-linecap="round" stroke-linejoin="round"/>
<path d="M34.8873 35.3631C33.8984 34.8623 32.7946 34.5479 31.6188 34.469C26.9349 34.1548 22.8832 37.6971 22.5689 42.381C22.2547 47.0649 25.797 51.1167 30.4809 51.4309C35.1648 51.7451 39.2166 48.2028 39.5308 43.5189C39.6611 41.5768 39.1283 39.7433 38.126 38.2399" stroke="#BC9FFF" stroke-width="1.8" stroke-linecap="round" stroke-linejoin="round"/>
</svg>
