<svg width="74" height="74" viewBox="0 0 74 74" fill="none" xmlns="http://www.w3.org/2000/svg">
<path opacity="0.1" d="M34.2188 2.69051C35.7695 1.19038 38.2305 1.19038 39.7812 2.69052L44.7416 7.48921C45.6283 8.34705 46.8613 8.74768 48.0829 8.57488L54.9166 7.60831C57.0529 7.30614 59.0439 8.75268 59.4166 10.8778L60.6091 17.6756C60.8222 18.8909 61.5843 19.9397 62.6742 20.518L68.7708 23.7527C70.6767 24.7639 71.4372 27.1045 70.4897 29.0428L67.4587 35.2433C66.9169 36.3518 66.9169 37.6482 67.4587 38.7567L70.4897 44.9571C71.4372 46.8955 70.6767 49.236 68.7708 50.2473L62.6742 53.482C61.5843 54.0603 60.8222 55.1091 60.6091 56.3244L59.4166 63.1222C59.0439 65.2473 57.0529 66.6939 54.9166 66.3917L48.083 65.4251C46.8613 65.2523 45.6283 65.653 44.7416 66.5108L39.7812 71.3095C38.2305 72.8096 35.7695 72.8096 34.2188 71.3095L29.2584 66.5108C28.3717 65.653 27.1387 65.2523 25.9171 65.4251L19.0834 66.3917C16.9471 66.6939 14.9561 65.2473 14.5834 63.1222L13.3909 56.3244C13.1778 55.1091 12.4157 54.0603 11.3258 53.482L5.22917 50.2473C3.32327 49.236 2.56279 46.8955 3.51031 44.9572L6.54129 38.7567C7.08313 37.6482 7.08313 36.3518 6.54129 35.2433L3.51031 29.0428C2.56278 27.1045 3.32327 24.764 5.22918 23.7527L11.3258 20.518C12.4157 19.9397 13.1778 18.8909 13.3909 17.6756L14.5834 10.8778C14.9561 8.75267 16.9471 7.30614 19.0834 7.60831L25.917 8.57488C27.1387 8.74768 28.3717 8.34705 29.2584 7.4892L34.2188 2.69051Z" fill="#C775A7"/>
<path opacity="0.5" d="M22.833 29.1767C22.833 27.2262 22.833 26.2509 23.1471 25.48C23.5788 24.4201 24.4198 23.5792 25.4796 23.1474C26.2506 22.8334 27.2258 22.8334 29.1763 22.8334C31.1268 22.8334 32.102 22.8334 32.873 23.1474C33.9328 23.5792 34.7738 24.4201 35.2056 25.48C35.5195 26.2509 35.5195 27.2262 35.5195 29.1767C35.5195 31.1272 35.5195 32.1024 35.2056 32.8733C34.7738 33.9332 33.9328 34.7742 32.873 35.206C32.102 35.5199 31.1268 35.5199 29.1763 35.5199C27.2258 35.5199 26.2506 35.5199 25.4796 35.206C24.4198 34.7742 23.5788 33.9332 23.1471 32.8733C22.833 32.1024 22.833 31.1272 22.833 29.1767Z" fill="#C82289"/>
<path opacity="0.5" d="M22.833 44.8234C22.833 42.8729 22.833 41.8977 23.1471 41.1267C23.5788 40.0669 24.4198 39.2258 25.4796 38.7942C26.2506 38.4801 27.2258 38.4801 29.1763 38.4801C31.1268 38.4801 32.102 38.4801 32.873 38.7942C33.9328 39.2258 34.7738 40.0669 35.2056 41.1267C35.5195 41.8977 35.5195 42.8729 35.5195 44.8234C35.5195 46.7738 35.5195 47.7491 35.2056 48.52C34.7738 49.58 33.9328 50.4209 32.873 50.8526C32.102 51.1666 31.1268 51.1666 29.1763 51.1666C27.2258 51.1666 26.2506 51.1666 25.4796 50.8526C24.4198 50.4209 23.5788 49.58 23.1471 48.52C22.833 47.7491 22.833 46.7738 22.833 44.8234Z" fill="#C82289"/>
<path opacity="0.5" d="M38.4803 44.8234C38.4803 42.8729 38.4803 41.8977 38.7944 41.1268C39.2262 40.0669 40.0671 39.2259 41.1269 38.7942C41.8978 38.4801 42.8731 38.4801 44.8235 38.4801C46.7742 38.4801 47.7494 38.4801 48.5202 38.7942C49.5801 39.2259 50.4211 40.0669 50.8529 41.1268C51.167 41.8977 51.167 42.8729 51.167 44.8234C51.167 46.7739 51.167 47.7491 50.8529 48.5201C50.4211 49.58 49.5801 50.4209 48.5202 50.8526C47.7494 51.1667 46.7742 51.1667 44.8235 51.1667C42.8731 51.1667 41.8978 51.1667 41.1269 50.8526C40.0671 50.4209 39.2262 49.58 38.7944 48.5201C38.4803 47.7491 38.4803 46.7739 38.4803 44.8234Z" fill="#C82289"/>
<path d="M38.4713 27.8619C38.1571 28.1688 38 28.5439 38 28.9872C38 29.4305 38.1571 29.8056 38.4713 30.1125L41.7707 33.5141C42.0683 33.838 42.4322 34 42.8622 34C43.2921 34 43.656 33.838 43.9537 33.5141L50.5275 26.7366C50.8582 26.4126 51.0154 26.0375 50.9988 25.6113C50.9823 25.185 50.8252 24.8099 50.5275 24.4859C50.2298 24.162 49.866 24 49.436 24C49.006 24 48.6422 24.162 48.3445 24.4859L42.8622 30.1125L40.6543 27.8619C40.3401 27.555 39.9763 27.4015 39.5628 27.4015C39.1494 27.4015 38.7856 27.555 38.4713 27.8619Z" fill="#C82289"/>
</svg>
