<svg width="74" height="74" viewBox="0 0 74 74" fill="none" xmlns="http://www.w3.org/2000/svg">
<path opacity="0.1" d="M34.2188 2.69051C35.7695 1.19038 38.2305 1.19038 39.7812 2.69052L44.7416 7.48921C45.6283 8.34705 46.8613 8.74768 48.0829 8.57488L54.9166 7.60831C57.0529 7.30614 59.0439 8.75268 59.4166 10.8778L60.6091 17.6756C60.8222 18.8909 61.5843 19.9397 62.6742 20.518L68.7708 23.7527C70.6767 24.7639 71.4372 27.1045 70.4897 29.0428L67.4587 35.2433C66.9169 36.3518 66.9169 37.6482 67.4587 38.7567L70.4897 44.9571C71.4372 46.8955 70.6767 49.236 68.7708 50.2473L62.6742 53.482C61.5843 54.0603 60.8222 55.1091 60.6091 56.3244L59.4166 63.1222C59.0439 65.2473 57.0529 66.6939 54.9166 66.3917L48.083 65.4251C46.8613 65.2523 45.6283 65.653 44.7416 66.5108L39.7812 71.3095C38.2305 72.8096 35.7695 72.8096 34.2188 71.3095L29.2584 66.5108C28.3717 65.653 27.1387 65.2523 25.9171 65.4251L19.0834 66.3917C16.9471 66.6939 14.9561 65.2473 14.5834 63.1222L13.3909 56.3244C13.1778 55.1091 12.4157 54.0603 11.3258 53.482L5.22917 50.2473C3.32327 49.236 2.56279 46.8955 3.51031 44.9572L6.54129 38.7567C7.08313 37.6482 7.08313 36.3518 6.54129 35.2433L3.51031 29.0428C2.56278 27.1045 3.32327 24.764 5.22918 23.7527L11.3258 20.518C12.4157 19.9397 13.1778 18.8909 13.3909 17.6756L14.5834 10.8778C14.9561 8.75267 16.9471 7.30614 19.0834 7.60831L25.917 8.57488C27.1387 8.74768 28.3717 8.34705 29.2584 7.4892L34.2188 2.69051Z" fill="#607AD0"/>
<path opacity="0.5" fill-rule="evenodd" clip-rule="evenodd" d="M27.5937 21.5626C28.9786 20.2101 30.8569 19.4502 32.8154 19.4502C34.774 19.4502 36.6523 20.2101 38.0371 21.5626C39.422 22.915 40.2 24.7495 40.2 26.6623C40.2 28.5751 39.422 30.4096 38.0371 31.762C36.6523 33.1146 34.774 33.8744 32.8154 33.8744C30.8569 33.8744 28.9786 33.1146 27.5937 31.762C26.2088 30.4096 25.4307 28.5751 25.4307 26.6623C25.4307 24.7495 26.2088 22.915 27.5937 21.5626ZM36.8 36.7593H23.9383C22.3181 36.7593 21 38.0466 21 39.629V40.7259C21 43.1146 22.392 45.1801 24.919 46.5411C27.0215 47.6748 29.8262 48.2987 32.8154 48.2987C33.982 48.2987 35.1668 48.1991 36.3136 47.9959C35.9305 47.8231 35.6049 47.5353 35.3888 47.1658C35.0541 46.5937 35.0236 45.8946 35.3061 45.2958L35.7122 44.4361C35.8365 44.1725 35.7804 43.8569 35.572 43.6515L34.8933 42.9812C34.4204 42.5143 34.2075 41.8471 34.3234 41.1965C34.4393 40.5458 34.8704 39.9906 35.4768 39.7119L36.3467 39.3115C36.614 39.1882 36.7757 38.9108 36.7501 38.6209L36.6661 37.6764C36.6381 37.3602 36.6859 37.0468 36.8 36.7593Z" fill="#5F7EE3"/>
<path d="M42 52C46.9706 52 51 47.9706 51 43C51 38.0294 46.9706 34 42 34C37.0294 34 33 38.0294 33 43C33 47.9706 37.0294 52 42 52Z" fill="#2955E7" stroke="#DFE5FA" stroke-width="2" stroke-linecap="round"/>
<path d="M38.3125 45.8701C38.7329 46.2218 39.2869 46.4759 39.8838 46.6423C40.4875 46.8107 41.1566 46.8956 41.8272 46.8956C42.4977 46.8956 43.1668 46.8107 43.7706 46.6423C44.3675 46.4759 44.9214 46.2218 45.3419 45.8701" stroke="white" stroke-width="1.5" stroke-linecap="round"/>
<path d="M39.2669 42.1563C39.856 42.1563 40.3335 41.695 40.3335 41.126C40.3335 40.557 39.856 40.0957 39.2669 40.0957C38.6778 40.0957 38.2002 40.557 38.2002 41.126C38.2002 41.695 38.6778 42.1563 39.2669 42.1563Z" fill="white" stroke="white" stroke-linecap="round"/>
<path d="M44.388 42.1563C44.9771 42.1563 45.4546 41.695 45.4546 41.126C45.4546 40.557 44.9771 40.0957 44.388 40.0957C43.7989 40.0957 43.3213 40.557 43.3213 41.126C43.3213 41.695 43.7989 42.1563 44.388 42.1563Z" fill="white" stroke="white" stroke-linecap="round"/>
</svg>
