<svg width="1336" height="218" viewBox="0 0 1336 218" fill="none" xmlns="http://www.w3.org/2000/svg">
<rect width="1336" height="218" fill="#FFFBFB"/>
<g opacity="0.2" clip-path="url(#clip0_715_2934)">
<path d="M1229.8 30.3558C1232.3 36.848 1236.28 42.7372 1241.26 47.6445C1242.56 48.9231 1243.92 50.1335 1245.34 51.272C1249.04 54.2299 1253.13 56.6932 1257.48 58.5512C1264.18 61.4123 1271.41 62.8711 1278.7 63.0358C1280.54 63.0784 1282.39 63.0364 1284.24 62.9137C1285.33 62.8419 1286.43 62.7397 1287.52 62.6101C1292.21 62.0542 1296.84 60.9747 1301.29 59.4038C1303.37 58.6695 1305.4 57.8333 1307.39 56.902C1318.9 51.5077 1328.89 42.9299 1336.45 32.6807" stroke="#EF4A6B" stroke-width="1.08919" stroke-linecap="round" stroke-linejoin="round"/>
<path d="M1323.08 46.8768C1314.95 50.6345 1307.77 52.3916 1301.56 52.8977L1301.56 52.8983C1297.42 53.234 1293.71 53.0157 1290.44 52.4628L1290.44 52.4634" stroke="#EF4A6B" stroke-width="1.08919" stroke-linecap="round" stroke-linejoin="round"/>
<path d="M1277.72 47.9291C1276.33 47.1173 1275.21 46.3315 1274.37 45.6764L1274.37 45.677" stroke="#EF4A6B" stroke-width="1.08919" stroke-linecap="round" stroke-linejoin="round"/>
<path d="M1234.94 66.053C1238.92 65.3607 1245.04 64.4625 1252.84 63.8154C1260.11 63.2128 1268.85 62.8288 1278.69 63.0358C1278.83 63.0388 1278.96 63.0418 1279.09 63.0448" stroke="#EF4A6B" stroke-width="1.08919" stroke-linecap="round" stroke-linejoin="round"/>
<path d="M1301.56 52.8977C1296.24 51.2253 1291.75 47.812 1288.1 43.6041C1284.44 39.3966 1281.66 34.517 1279.09 29.5757C1289.83 33.2303 1298.17 42.083 1301.56 52.8974V52.8977Z" stroke="#EF4A6B" stroke-width="1.08919" stroke-linecap="round" stroke-linejoin="round"/>
<path d="M1290.44 52.4631C1280.5 55.8091 1268.97 54.0688 1260.31 48.159C1265.47 47.6877 1270.68 47.1271 1275.84 47.7017C1280.99 48.2764 1286.43 49.1907 1290.44 52.4628L1290.44 52.4631Z" stroke="#EF4A6B" stroke-width="1.08919" stroke-linecap="round" stroke-linejoin="round"/>
<path d="M1274.37 45.6771C1268.49 44.2963 1263.08 40.4174 1259.57 35.5148C1256.05 30.6123 1254.39 24.4192 1254.98 18.4204C1260.32 21.4092 1264.89 26.1033 1267.69 31.5334C1269.96 35.9504 1271.59 41.5577 1274.37 45.6771Z" stroke="#EF4A6B" stroke-width="1.08919" stroke-linecap="round" stroke-linejoin="round"/>
<path d="M1255.54 57.5994C1248.47 47.8119 1243.92 36.2218 1242.45 24.2423C1249.94 29.205 1255.39 37.2478 1256.9 46.0945C1257.51 49.7155 1257.71 54.635 1255.54 57.5994Z" stroke="#EF4A6B" stroke-width="1.08919" stroke-linecap="round" stroke-linejoin="round"/>
<path d="M1245.62 51.5578C1234.47 51.4047 1223.46 46.7232 1215.62 38.8101C1226.84 39.1991 1237.88 43.4335 1245.62 51.5578Z" stroke="#EF4A6B" stroke-width="1.08919" stroke-linecap="round" stroke-linejoin="round"/>
<path d="M1232.17 35.3709C1232.12 29.5908 1232.03 23.7984 1231.35 18.0585C1230.66 12.3185 1229.37 6.61162 1226.98 1.34534C1227.01 12.4692 1228.85 24.7505 1232.17 35.3709H1232.17Z" stroke="#EF4A6B" stroke-width="1.08919" stroke-linecap="round" stroke-linejoin="round"/>
<path d="M1229.89 30.6793C1220.42 22.2597 1212.87 11.6887 1208 0C1218.72 7.13114 1226.68 18.2244 1229.89 30.6793Z" stroke="#EF4A6B" stroke-width="1.08919" stroke-linecap="round" stroke-linejoin="round"/>
<path d="M1307.39 56.9021C1300.12 62.3012 1294.34 69.6513 1290.86 77.9997C1295.84 77.2314 1300.42 74.2673 1303.18 70.0467C1305.63 66.2848 1306.81 61.3551 1307.39 56.9021Z" stroke="#EF4A6B" stroke-width="1.08919" stroke-linecap="round" stroke-linejoin="round"/>
<path d="M1287.55 62.6072C1279.24 69.9483 1267.62 73.3543 1256.63 71.8376C1266.33 66.7715 1276.62 63.3388 1287.55 62.6072Z" stroke="#EF4A6B" stroke-width="1.08919" stroke-linecap="round" stroke-linejoin="round"/>
<path d="M1252.84 63.8155C1245.78 62.4088 1238.59 59.9911 1232.34 56.4154C1236.2 56.1243 1240.04 56.4892 1243.73 57.6832C1247.41 58.8772 1250.63 60.6449 1252.84 63.8155Z" stroke="#EF4A6B" stroke-width="1.08919" stroke-linecap="round" stroke-linejoin="round"/>
<path d="M1246.48 64.5833C1244.82 66.6903 1243.12 68.8373 1240.87 70.2922C1239.23 71.3546 1237.35 72.0046 1235.45 72.4848C1229.87 73.8956 1223.9 73.8903 1218.4 72.2C1227.74 69.6491 1237.14 67.1345 1246.48 64.5836V64.5833Z" stroke="#EF4A6B" stroke-width="1.08919" stroke-linecap="round" stroke-linejoin="round"/>
<path d="M1234.94 66.0537C1231.14 67.5629 1226.75 68.0714 1222.74 67.2731C1218.72 66.4744 1214.95 64.4945 1212.01 61.6445C1215.63 61.5501 1219.31 61.5834 1222.86 62.2776C1227.01 63.0905 1231.13 64.2118 1234.94 66.0537H1234.94Z" stroke="#EF4A6B" stroke-width="1.08919" stroke-linecap="round" stroke-linejoin="round"/>
<path d="M1301.56 52.8981C1288.56 44.1309 1279.25 29.6309 1279.25 29.6309C1294.5 41.2436 1301.56 52.8981 1301.56 52.8981Z" stroke="#EF4A6B" stroke-width="0.544154" stroke-linecap="round" stroke-linejoin="round"/>
<path d="M1290.44 52.4635C1273.83 53.6107 1260.31 48.1594 1260.31 48.1594C1275.07 49.004 1290.44 52.4635 1290.44 52.4635Z" stroke="#EF4A6B" stroke-width="0.544154" stroke-linecap="round" stroke-linejoin="round"/>
<path d="M1274.19 45.5161C1268.31 42.8561 1263.34 38.2196 1260.29 32.5371C1258.02 28.2995 1256.14 23.3761 1254.96 18.7155C1257.46 22.6138 1260.71 26.594 1263.21 30.4921C1266.5 35.6234 1270.03 41.0565 1274.19 45.5161Z" stroke="#EF4A6B" stroke-width="0.544154" stroke-linecap="round" stroke-linejoin="round"/>
<path d="M1255.6 57.55C1255.9 51.5387 1254.28 45.5551 1251.8 40.0698C1249.31 34.5846 1245.98 29.5313 1242.67 24.5045C1245.64 35.8968 1250.33 47.013 1255.6 57.55Z" stroke="#EF4A6B" stroke-width="0.544154" stroke-linecap="round" stroke-linejoin="round"/>
<path d="M1232.25 34.5612C1229.79 24.3453 1228.24 13.914 1227.6 3.427" stroke="#EF4A6B" stroke-width="0.544154" stroke-linecap="round" stroke-linejoin="round"/>
<path d="M1229.74 30.5448C1225.49 26.2595 1222.02 21.208 1218.71 16.1618C1215.32 10.9932 1211.74 5.66559 1208.35 0.497314C1217.99 8.01811 1225.59 19.0538 1229.74 30.5448H1229.74Z" stroke="#EF4A6B" stroke-width="0.544154" stroke-linecap="round" stroke-linejoin="round"/>
<path d="M1245.34 51.2728C1229.35 47.2377 1215.94 39.1318 1215.94 39.1318C1232.89 44.0678 1243.67 49.6596 1243.67 49.6596" stroke="#EF4A6B" stroke-width="0.544154" stroke-linecap="round" stroke-linejoin="round"/>
<path d="M1252.84 63.816C1239.16 58.9134 1232.71 56.4465 1232.71 56.4465C1243 57.948 1252.84 63.816 1252.84 63.816Z" stroke="#EF4A6B" stroke-width="0.544154" stroke-linecap="round" stroke-linejoin="round"/>
<path d="M1234.75 65.9612C1221.1 67.3839 1212.24 61.8647 1212.24 61.8647C1224.25 63.4826 1231.34 64.5461 1231.34 64.5461" stroke="#EF4A6B" stroke-width="0.544154" stroke-linecap="round" stroke-linejoin="round"/>
<path d="M1246.06 64.6967C1234.6 72.6893 1218.4 72.2005 1218.4 72.2005C1236.46 68.6763 1243.22 65.4024 1243.22 65.4024" stroke="#EF4A6B" stroke-width="0.544154" stroke-linecap="round" stroke-linejoin="round"/>
<path d="M1287 62.6707C1268.9 72.286 1256.63 71.8383 1256.63 71.8383C1273.6 64.646 1287 62.6707 1287 62.6707Z" stroke="#EF4A6B" stroke-width="0.544154" stroke-linecap="round" stroke-linejoin="round"/>
<path d="M1307.34 57.2318C1302.3 72.9353 1290.86 78.0003 1290.86 78.0003C1299.52 65.3746 1307.34 57.2318 1307.34 57.2318Z" stroke="#EF4A6B" stroke-width="0.544154" stroke-linecap="round" stroke-linejoin="round"/>
</g>
<g clip-path="url(#clip1_715_2934)">
<g opacity="0.2">
<path d="M19.0044 200.735C17.7402 201.426 17.0705 202.825 17.1627 204.273C17.3793 207.652 20.5296 209.394 24.2883 208.952C27.3833 208.588 27.9532 206.714 27.1422 203.713C26.4863 201.286 22.0918 199.051 19.0028 200.735H19.0044Z" stroke="#EF4A6B" stroke-width="1.64069" stroke-linecap="round" stroke-linejoin="round"/>
<path d="M19.2017 200.596C19.6364 199.3 18.2694 197.462 17.6888 196.285C16.6827 194.245 15.6136 192.253 14.583 190.229C13.4786 188.062 12.9456 185.779 12.302 183.444C11.2959 179.79 12.1683 176.656 12.8626 173.072C14.179 166.27 16.0007 158.461 23.733 156.864C31.1826 155.325 34.5803 163.821 38.2483 168.712C41.8149 173.469 41.9393 182.229 38.577 187.16C34.9351 192.501 30.536 197.395 26.057 202.015" stroke="#EF4A6B" stroke-width="1.64069" stroke-linecap="round" stroke-linejoin="round"/>
<path d="M26.0566 202.017C26.6111 201.609 27.6464 200.674 28.1226 200.176C29.6955 198.529 31.5095 197.142 33.1761 195.598C34.9363 193.968 36.6828 192.287 38.7441 191.037C42.4981 188.76 46.5808 187.119 50.9216 186.477C54.3023 185.976 58.2637 186.71 60.7966 189.112C63.268 191.457 64.9423 194.824 67.0006 197.553C68.3661 199.365 69.3937 201.035 68.853 203.347C68.3154 205.65 67.1772 208.093 66.0697 210.162C65.4661 211.291 64.7073 212.302 64.1451 213.459C63.566 214.647 63.2389 215.884 62.2205 216.771C61.2298 217.635 59.8228 218.088 58.5556 218.31C56.6586 218.642 54.6526 218.125 52.7679 217.891C50.3748 217.595 48.0923 217.075 45.7375 216.585C42.8575 215.985 39.7671 215.987 37.0683 214.774C34.2451 213.505 32.1331 211.86 29.6555 210.106C28.7892 209.493 27.3776 208.84 26.7494 208.028" stroke="#EF4A6B" stroke-width="1.64069" stroke-linecap="round" stroke-linejoin="round"/>
<path d="M21.7102 209.01C20.824 211.659 20.8347 214.942 20.4999 217.729C20.2111 220.131 19.8455 222.385 19.2803 224.734C18.8517 226.514 18.6275 228.625 18.8057 230.451C19.053 232.969 19.3064 235.75 19.9868 238.188C20.3386 239.45 20.8501 240.669 21.6611 241.707C23.3108 243.816 25.9788 244.529 28.4073 245.322C31.2427 246.246 33.8094 247.203 36.7693 246.347C38.2177 245.928 39.8137 245.249 41.0071 244.309C42.6753 242.995 43.1361 241.459 43.6767 239.511C44.03 238.234 44.3956 237.13 45.0284 235.962C45.4017 235.274 46.0683 234.604 46.1866 233.833C46.42 232.327 44.7304 230.66 43.9256 229.626C42.9241 228.338 42.0409 227.091 41.3143 225.624C39.2638 221.487 37.4344 216.986 34.476 213.447" stroke="#EF4A6B" stroke-width="1.64069" stroke-linecap="round" stroke-linejoin="round"/>
<path d="M16.969 204.231C15.1104 204.848 12.2658 204.172 10.4702 203.828C7.14316 203.192 3.94365 202.362 0.55521 202.047C-3.13122 201.705 -6.3937 201.244 -9.40582 198.955C-12.633 196.501 -15.8156 193.688 -18.2425 190.418C-19.8123 188.301 -21.8183 185.864 -20.651 183.046C-19.8814 181.19 -18.1595 179.813 -16.3163 179.222C-14.8095 178.738 -13.2458 178.442 -11.7452 177.942C-10.5133 177.533 -9.69459 176.826 -8.67468 176.249C-6.50276 175.021 -3.28635 175.57 -0.96544 176.067C1.31707 176.556 4.28464 177.241 6.25688 178.464C8.60083 179.915 11.0569 183.049 12.7773 185.19" stroke="#EF4A6B" stroke-width="1.64069" stroke-linecap="round" stroke-linejoin="round"/>
<path d="M16.9728 204.231C14.4537 204.8 12.228 205.791 9.6506 206.346C7.0701 206.903 3.84601 206.59 1.42065 207.838C0.40074 208.362 -0.585377 209.543 -1.35492 210.386C-2.57298 211.723 -3.87859 213.049 -5.21031 214.271C-7.52969 216.402 -11.445 218.024 -12.6845 221.103C-13.4802 223.079 -13.6768 225.408 -13.8273 227.509C-13.9456 229.167 -14.3142 230.968 -14.2159 232.622C-13.9978 236.247 -10.955 236.956 -8.06114 237.658C-6.38996 238.064 -4.99373 238.634 -3.22425 238.544C-1.30577 238.446 0.618854 238.018 2.44056 237.399C4.28838 236.773 4.97344 235.788 6.10856 234.301C7.76438 232.131 9.30039 229.89 11.2281 227.939C13.8885 225.245 15.8254 222.418 17.1018 218.863C17.9005 216.641 18.5825 214.566 19.8728 212.564C20.5901 211.45 21.5808 210.383 21.7129 209.006" stroke="#EF4A6B" stroke-width="1.64069" stroke-linecap="round" stroke-linejoin="round"/>
<path d="M27.8848 157.227C29.3885 159.555 31.8707 161.466 32.7969 164.147C34.0826 167.874 33.2838 171.092 33.2024 174.849C33.1318 178.15 34.9105 181.624 35.6232 184.815C36.1178 187.034 35.7906 189.952 34.9904 192.039" stroke="#EF4A6B" stroke-width="1.64069" stroke-linecap="round" stroke-linejoin="round"/>
<path d="M58.5701 218.17C61.1583 217.524 61.5561 214.423 61.5607 212.186C61.5638 210.363 60.7451 208.539 60.209 206.83C60.0523 206.331 59.7482 205.63 59.7328 205.114C59.7098 204.33 60.3104 203.433 60.5746 202.699C61.3241 200.629 61.7788 198.699 61.6697 196.469C61.596 194.948 61.1183 193.505 60.7097 192.048C60.4747 191.206 60.1798 190.461 59.6745 189.752C58.9986 188.803 58.1523 187.842 57.3105 187.042" stroke="#EF4A6B" stroke-width="1.64069" stroke-linecap="round" stroke-linejoin="round"/>
<path d="M-12.1934 236.208C-10.8678 236.701 -9.01996 236.749 -7.61605 236.876C-5.524 237.067 -3.43502 237.185 -1.45357 236.339C0.885779 235.341 1.97635 232.681 2.98244 230.499C3.95319 228.394 4.56146 226.409 6.38163 224.84C9.90985 221.8 13.4795 218.902 16.8035 215.646C17.7604 214.71 18.5991 213.646 19.682 212.87" stroke="#EF4A6B" stroke-width="1.64069" stroke-linecap="round" stroke-linejoin="round"/>
<path d="M23.1092 209.021C23.487 212.321 23.3749 215.679 22.782 218.948C22.2259 222.009 21.2429 225.063 21.5271 228.161C21.6438 229.441 21.9756 230.689 22.1691 231.958C22.4809 234.003 22.4333 236.086 22.6192 238.147C22.805 240.208 23.2505 242.311 24.4255 244.008" stroke="#EF4A6B" stroke-width="0.821379" stroke-linecap="round" stroke-linejoin="round"/>
<path d="M29.7413 245.912C28.8657 244.819 28.4956 243.412 28.0793 242.071C26.7998 237.947 24.8629 233.968 24.4743 229.664C24.1655 226.238 24.8583 222.811 25.104 219.38C25.3606 215.804 25.101 212.332 24.3867 208.819" stroke="#EF4A6B" stroke-width="0.821379" stroke-linecap="round" stroke-linejoin="round"/>
<path d="M25.2207 208.641C26.2852 210.21 27.3542 211.784 28.2144 213.476C29.1099 215.236 29.7719 217.107 30.4109 218.979C33.3861 227.696 35.9113 236.584 39.4396 245.089" stroke="#EF4A6B" stroke-width="0.821379" stroke-linecap="round" stroke-linejoin="round"/>
<path d="M28.7539 209.471C30.3345 213.432 32.9104 216.731 34.8872 220.506C36.821 224.198 38.205 228.155 39.5828 232.094C40.8208 235.634 42.0343 238.976 42.5442 242.697" stroke="#EF4A6B" stroke-width="0.821379" stroke-linecap="round" stroke-linejoin="round"/>
<path d="M20.5727 208.582C19.8169 210.146 18.1749 211.021 16.7787 212.045C15.2273 213.18 13.8987 214.591 12.5439 215.959C10.1892 218.335 7.727 220.605 5.16954 222.756C4.33549 223.459 3.48761 224.152 2.76415 224.969C1.66897 226.207 0.894823 227.693 0.0976336 229.146C-1.42148 231.917 -3.08191 234.658 -5.33984 236.855" stroke="#EF4A6B" stroke-width="0.821379" stroke-linecap="round" stroke-linejoin="round"/>
<path d="M-10.7344 236.372C-8.34741 234.996 -5.92973 233.458 -4.43212 231.131C-3.67026 229.948 -3.18181 228.61 -2.52747 227.363C-0.919264 224.298 1.63512 221.87 4.14189 219.502C6.61334 217.167 9.11703 214.809 12.0692 213.135C14.6421 211.676 17.6311 210.671 19.4329 208.311" stroke="#EF4A6B" stroke-width="0.821379" stroke-linecap="round" stroke-linejoin="round"/>
<path d="M17.5073 206.349C16.1771 207.172 14.5398 207.256 13.0452 207.709C11.1559 208.281 9.50471 209.439 7.76441 210.378C4.46045 212.16 0.720259 213.208 -2.16437 215.62C-4.90308 217.909 -6.60344 221.21 -9.03188 223.831C-10.7138 225.646 -12.4464 226.884 -13.9609 228.842" stroke="#EF4A6B" stroke-width="0.821379" stroke-linecap="round" stroke-linejoin="round"/>
<path d="M17.3143 202.419C15.9074 202.674 14.4635 202.505 13.0504 202.294C6.87714 201.366 0.826796 199.615 -4.89331 197.1C-5.84717 196.681 -6.80411 196.233 -7.6059 195.565C-8.54901 194.781 -9.23254 193.735 -10.0282 192.798C-11.0251 191.624 -12.2093 190.614 -13.5226 189.819C-14.5579 189.191 -15.6884 188.685 -16.5516 187.832C-18.1829 186.221 -18.5438 183.727 -19.7266 181.757" stroke="#EF4A6B" stroke-width="0.821379" stroke-linecap="round" stroke-linejoin="round"/>
<path d="M-17.5723 179.711C-16.1837 181.833 -13.6862 182.87 -11.717 184.457C-10.3469 185.56 -9.22558 186.938 -7.9891 188.191C-5.32719 190.888 -2.14304 192.99 1.015 195.071C2.79217 196.242 4.58315 197.421 6.54925 198.23C10.3125 199.778 14.492 199.888 18.4165 200.949" stroke="#EF4A6B" stroke-width="0.821379" stroke-linecap="round" stroke-linejoin="round"/>
<path d="M19.0749 200.517C17.5404 199.158 16.0059 197.801 14.473 196.443C13.7541 195.807 13.0245 195.156 12.5407 194.324C11.9416 193.293 11.7696 192.069 11.3011 190.97C10.0984 188.146 7.18001 186.562 4.92975 184.49C3.64411 183.307 2.54587 181.922 1.22029 180.785C-1.60751 178.36 -5.29547 177.204 -8.95117 176.561" stroke="#EF4A6B" stroke-width="0.821379" stroke-linecap="round" stroke-linejoin="round"/>
<path d="M-2.41992 175.821C-0.186563 176.438 1.92545 177.502 3.75638 178.935C4.57507 179.575 5.34 180.29 6.2017 180.874C6.82379 181.295 7.49963 181.652 8.03417 182.181C8.90048 183.038 9.30445 184.25 9.90963 185.312C11.0125 187.249 12.7835 188.688 14.5146 190.079" stroke="#EF4A6B" stroke-width="0.821379" stroke-linecap="round" stroke-linejoin="round"/>
<path d="M27.2949 207.184C30.2825 208.374 33.27 209.563 36.2099 210.866C38.1776 211.737 40.136 212.663 42.2173 213.197C43.7994 213.603 45.4306 213.775 47.0588 213.907C49.9019 214.135 52.7543 214.239 55.6067 214.217C57.5774 214.202 59.6279 214.106 61.3682 213.169" stroke="#EF4A6B" stroke-width="0.821379" stroke-linecap="round" stroke-linejoin="round"/>
<path d="M61.0013 209.099C58.043 209.578 55.057 208.711 52.0848 208.339C46.1543 207.598 40.0686 208.828 34.1964 207.703C31.917 207.266 29.7205 206.483 27.5332 205.701" stroke="#EF4A6B" stroke-width="0.821379" stroke-linecap="round" stroke-linejoin="round"/>
<path d="M26.9434 203.263C29.7742 199.186 34.5098 197.02 38.8305 194.622C41.987 192.87 45.0483 190.895 48.4275 189.638C51.8068 188.38 55.6238 187.89 58.9907 189.182" stroke="#EF4A6B" stroke-width="0.821379" stroke-linecap="round" stroke-linejoin="round"/>
<path d="M61.7782 198.36C57.4896 198.112 53.1612 197.867 48.9187 198.547C43.8698 199.359 39.1282 201.452 34.3727 203.346C32.1163 204.244 29.7416 204.602 27.3301 204.343C32.5971 201.609 38.0453 199.231 43.6272 197.232C45.5579 196.541 47.5209 195.891 49.5546 195.641C51.7511 195.371 53.9737 195.576 56.1764 195.779C57.909 195.94 59.6431 196.1 61.3758 196.261" stroke="#EF4A6B" stroke-width="0.821379" stroke-linecap="round" stroke-linejoin="round"/>
<path d="M21.0817 200.1C21.0218 198.059 20.9205 195.979 20.2139 194.067C19.7393 192.784 19.0066 191.613 18.5366 190.329C16.9468 185.978 18.5796 180.988 17.2402 176.551C16.8347 175.205 16.1665 173.957 15.6903 172.636C14.844 170.286 14.6228 167.71 15.056 165.247" stroke="#EF4A6B" stroke-width="0.821379" stroke-linecap="round" stroke-linejoin="round"/>
<path d="M17.0318 161.013C16.7983 164.223 16.6294 167.19 17.5233 170.28C17.8597 171.443 18.3497 172.553 18.7275 173.702C19.1745 175.062 19.4648 176.469 19.7536 177.873C20.0024 179.082 20.2528 180.304 20.2175 181.54C20.1791 182.882 19.8027 184.208 19.8903 185.546C19.9809 186.936 20.5646 188.234 21.0285 189.546C22.2373 192.964 22.6705 196.658 22.2834 200.267" stroke="#EF4A6B" stroke-width="0.821379" stroke-linecap="round" stroke-linejoin="round"/>
<path d="M23.5156 200.219C25.3496 196.024 25.0286 191.244 25.0854 186.658C25.1515 181.283 25.7874 175.914 26.9793 170.675C27.4079 168.786 27.9117 166.903 28.0699 164.972C28.288 162.307 27.6874 159.209 26.6107 156.764" stroke="#EF4A6B" stroke-width="0.821379" stroke-linecap="round" stroke-linejoin="round"/>
<path d="M30.6964 160.756C31.3324 163.155 31.4798 165.686 31.1265 168.144C30.9668 169.253 30.7087 170.343 30.4491 171.432C29.3801 175.909 28.2772 180.424 28.1666 185.029C28.1252 186.764 28.2235 188.501 28.1805 190.236C28.0822 194.14 27.2327 198.065 25.3711 201.486" stroke="#EF4A6B" stroke-width="0.821379" stroke-linecap="round" stroke-linejoin="round"/>
<path d="M26.0391 201.699C27.3416 200.452 28.0896 198.723 28.5673 196.977C29.045 195.23 29.2877 193.424 29.767 191.677C30.4674 189.128 31.6609 186.744 32.4965 184.236C33.0617 182.543 33.4626 180.792 33.6915 179.019" stroke="#EF4A6B" stroke-width="0.821379" stroke-linecap="round" stroke-linejoin="round"/>
</g>
</g>
<g clip-path="url(#clip2_715_2934)">
<g opacity="0.1">
<path d="M21.6763 28.7322C22.4117 30.7871 22.6087 33.5791 22.9655 35.7352C23.3463 38.0386 23.5826 40.45 23.4557 42.7777C23.1558 48.3065 18.6296 52.2865 14.6571 55.657C11.2252 58.5699 6.69005 61.1595 2.48551 62.7017C0.585693 63.3992 -1.29661 63.5399 -3.31462 63.5597C-7.34625 63.5971 -12.3015 62.0307 -15.9326 60.297C-18.3292 59.1507 -23.3742 57.6899 -24.7072 55.03C-25.9416 52.5681 -22.0172 49.6596 -20.356 48.3395C-17.5632 46.1218 -15.0068 43.7721 -12.411 41.2926C-8.96591 37.9969 -4.96712 35.3127 -0.764772 33.0708C3.4923 30.8003 7.7779 29.7113 12.5012 29.0072C15.1233 28.6178 17.741 27.4364 21.6763 28.73V28.7322Z" stroke="#EF4A6B" stroke-width="2.23156" stroke-linecap="round" stroke-linejoin="round"/>
<path d="M21.6764 28.7323C22.6504 26.9084 23.0225 24.8667 23.6507 23.5291C24.6772 21.3444 25.8853 19.3929 26.3143 16.9992C27.1198 12.5066 27.2796 7.73677 24.165 4.02961C20.941 0.192644 17.45 -1.33419 12.777 -2.64324C9.68438 -3.51008 6.2481 -4.78394 3.00441 -4.95775C-0.68578 -5.15355 -4.57078 -4.40115 -8.1209 -3.49911C-13.5139 -2.12845 -19.0032 -0.777585 -23.6958 2.28275C-26.4755 4.09563 -26.1757 5.59829 -23.6696 7.88858C-21.3014 10.0535 -18.2613 10.0667 -15.6676 11.8466C-13.5314 13.314 -12.1372 15.6967 -10.1979 17.3886C-8.31564 19.0321 -5.92775 20.1453 -3.8594 21.5094C-1.77574 22.8844 0.296928 24.2947 2.37184 25.6808C4.81883 27.3154 7.23298 27.9425 9.69092 29.4825" stroke="#EF4A6B" stroke-width="2.23156" stroke-linecap="round" stroke-linejoin="round"/>
<path d="M21.6757 28.7323C29.426 33.6099 34.4206 39.3016 37.1543 41.275C40.8226 43.924 43.2806 48.597 44.8215 52.9488C48.0849 62.1672 44.4297 73.1962 39.4547 81.1936C37.3645 84.5553 32.1509 89.8333 28.9094 84.7313C27.4867 82.4916 27.4255 79.2971 27.0644 76.7582C26.6748 74.0235 25.8058 71.2513 24.3525 68.8884C22.5446 65.9469 20.1435 63.5884 18.3991 60.6183C17.3551 58.8406 16.5124 57.1223 15.7595 55.228" stroke="#EF4A6B" stroke-width="2.23156" stroke-linecap="round" stroke-linejoin="round"/>
<path d="M21.6775 28.7323C24.2493 27.1306 27.5652 25.6896 30.4127 24.5037C34.6545 22.7392 37.9178 19.5337 41.2075 16.4029C47.9488 9.98966 51.8469 -0.891969 46.3401 -9.30073C45.3683 -10.7836 44.0923 -12.3413 42.7243 -13.4853C41.109 -14.8384 38.9421 -15.23 37.3553 -16.6227C34.5734 -19.0648 32.1527 -22.1383 29.605 -24.8334C25.9236 -28.7276 19.2217 -32.3159 16.453 -25.3328C14.2621 -19.8062 15.1091 -12.4909 16.3064 -6.83884C16.685 -5.04796 17.1775 -3.1273 17.7685 -1.46622" stroke="#EF4A6B" stroke-width="2.23156" stroke-linecap="round" stroke-linejoin="round"/>
<path d="M34.7789 39.1564C41.0518 39.9924 49.2617 38.3753 52.6936 36.9871C56.9901 35.2512 61.1772 33.1479 63.6351 29.0426C65.9705 25.1396 66.6949 19.998 67.3909 15.5604C68.1175 10.916 68.2007 6.18354 69.0959 1.55894C69.5118 -0.592749 70.4026 -3.57168 69.4461 -5.70577C67.4391 -10.1896 62.0789 -7.182 59.4064 -5.17111C58.2946 -4.33508 57.3775 -3.35604 56.3422 -2.43201C55.0487 -1.27916 53.5034 -0.641158 52.1114 0.342284C51.2162 0.975912 49.2857 3.0396 48.4825 3.80743" stroke="#EF4A6B" stroke-width="2.23156" stroke-linecap="round" stroke-linejoin="round"/>
<path d="M57.3442 34.8199C62.1659 37.7263 63.7199 44.265 64.9784 49.5606C66.0334 54.0026 67.7515 61.2409 64.2124 65.0449C61.1919 68.2922 55.788 63.3354 53.2338 61.5313C50.8153 59.8219 48.3069 58.2092 45.9781 56.4909" stroke="#EF4A6B" stroke-width="2.23156" stroke-linecap="round" stroke-linejoin="round"/>
<path d="M38.3504 26.8534C32.9858 28.4419 27.3498 29.0997 21.7664 28.7895C28.3107 30.2438 34.925 32.0654 40.4844 35.8254" stroke="#EF4A6B" stroke-width="2.23156" stroke-linecap="round" stroke-linejoin="round"/>
<path d="M21.7412 29.1766C26.6461 33.7704 30.7675 39.2069 33.8711 45.1801" stroke="#EF4A6B" stroke-width="2.23156" stroke-linecap="round" stroke-linejoin="round"/>
<path d="M21.5524 28.706C26.418 25.0846 30.8873 20.9286 34.8555 16.3326" stroke="#EF4A6B" stroke-width="2.23156" stroke-linecap="round" stroke-linejoin="round"/>
<path d="M22.7852 25.7093C20.6687 25.9293 18.5346 25.9975 16.4072 25.9161C15.0808 25.8655 13.7391 25.7534 12.4784 25.3353C11.3971 24.9767 10.4013 24.4025 9.41203 23.8371C5.35194 21.5182 1.23928 19.2631 -3.10752 17.5448C-6.54382 16.1874 -10.1902 15.1291 -13.1034 12.8454C-14.5151 11.7365 -15.7321 10.3549 -17.3036 9.49024C-18.6737 8.73561 -20.2365 8.4166 -21.6657 7.78517C-23.1716 7.12074 -24.522 6.10868 -25.5835 4.84802" stroke="#EF4A6B" stroke-width="1.11719" stroke-linecap="round" stroke-linejoin="round"/>
<path d="M24.4592 21.109C20.7581 20.0991 17.1838 18.6228 13.846 16.7285C11.3509 15.3117 8.97615 13.6572 6.35187 12.5C1.60671 10.4077 -3.6791 10.0491 -8.78977 9.19322C-14.4914 8.24058 -19.9785 5.77431 -25.3234 3.56101C-20.5038 0.408274 -14.5023 -0.0735597 -8.8291 -1.0174C-4.74931 -1.69723 -0.700224 -2.66308 3.4299 -2.84569C7.56002 -3.0283 11.8697 -2.35947 15.2972 -0.0383689C16.5514 0.810868 17.6566 1.8581 18.7378 2.91855C19.7622 3.92399 20.7734 4.94487 21.7014 6.04052C23.831 8.55523 25.5098 11.4549 26.6348 14.5593" stroke="#EF4A6B" stroke-width="1.11719" stroke-linecap="round" stroke-linejoin="round"/>
<path d="M-24.7507 3.26621C-22.9954 3.1826 -21.24 3.09681 -19.4934 2.8878C-16.8626 2.57098 -14.2733 1.97474 -11.649 1.60733C-8.14928 1.11891 -4.60571 1.04192 -1.07092 0.967119C1.50083 0.912117 4.12729 0.865934 6.58085 1.64697C10.2163 2.80642 13.0332 5.63352 16.069 7.95683C17.9316 9.38249 19.9211 10.6431 21.7071 12.1656C23.4931 13.688 25.0974 15.5163 25.916 17.723" stroke="#EF4A6B" stroke-width="1.11719" stroke-linecap="round" stroke-linejoin="round"/>
<path d="M23.2695 38.5337C23.2586 40.2718 22.8055 42.0076 21.9607 43.5235C20.9626 45.31 19.4567 46.751 17.9049 48.0799C9.27915 55.4744 -1.51995 60.275 -12.7678 61.7161" stroke="#EF4A6B" stroke-width="1.11719" stroke-linecap="round" stroke-linejoin="round"/>
<path d="M-24.5984 54.9246C-21.9172 52.2448 -19.155 49.6333 -16.1302 47.354C-14.2326 45.924 -12.2408 44.6303 -10.2491 43.3367C-8.73668 42.3554 -7.21991 41.3697 -5.61557 40.5491C-3.00442 39.2137 -0.196228 38.3293 2.54406 37.2886C8.97015 34.8509 15.4312 31.4782 22.2754 32.0612" stroke="#EF4A6B" stroke-width="1.11719" stroke-linecap="round" stroke-linejoin="round"/>
<path d="M22.4316 34.3273C18.0214 35.2975 13.913 37.293 9.85075 39.2731C8.46091 39.9508 7.07117 40.6262 5.68351 41.3038C3.35252 42.4391 1.01932 43.5765 -1.2285 44.8702C-7.6524 48.5641 -13.2906 53.4813 -18.7121 58.5459" stroke="#EF4A6B" stroke-width="1.11719" stroke-linecap="round" stroke-linejoin="round"/>
<path d="M-15.149 60.3477C-10.5242 58.4072 -5.81189 56.6626 -1.31844 54.4273C2.66066 52.4494 6.45376 50.0909 9.99293 47.398C14.4951 43.9724 18.5705 40.0189 22.6328 36.0741" stroke="#EF4A6B" stroke-width="1.11719" stroke-linecap="round" stroke-linejoin="round"/>
<path d="M32.8399 37.5018C36.239 41.8734 39.6184 46.4166 41.3256 51.6946C43.1532 57.3401 42.9408 63.4629 41.98 69.3196C41.2861 73.5438 40.2137 77.7063 38.7779 81.7369" stroke="#EF4A6B" stroke-width="1.11719" stroke-linecap="round" stroke-linejoin="round"/>
<path d="M29.6758 85.651C27.568 80.2431 29.3475 73.9816 27.6381 68.433C26.7013 65.3925 24.7796 62.7788 23.0352 60.121C21.293 57.4633 19.658 54.579 19.426 51.4043" stroke="#EF4A6B" stroke-width="1.11719" stroke-linecap="round" stroke-linejoin="round"/>
<path d="M32.2041 86.4738C31.681 84.3507 31.4687 82.1485 31.5825 79.9638C31.7073 77.5415 32.2238 75.1455 32.2107 72.721C32.1976 70.2657 31.6415 67.85 31.0878 65.4585C29.1114 56.9133 27.1175 48.3154 23.6615 40.2587" stroke="#EF4A6B" stroke-width="1.11719" stroke-linecap="round" stroke-linejoin="round"/>
<path d="M35.2611 85.6752C35.342 83.2441 36.0424 80.8834 36.5173 78.4963C37.8503 71.7948 37.4016 64.8359 36.0927 58.1301C35.4011 54.5835 34.4709 51.0831 33.3131 47.6598C31.4812 42.2497 29.0823 37.0553 26.5915 31.9181" stroke="#EF4A6B" stroke-width="1.11719" stroke-linecap="round" stroke-linejoin="round"/>
<path d="M64.8945 63.6347C63.5813 63.6501 62.2659 63.4102 61.0424 62.9306C59.5059 62.3278 58.1379 61.3686 56.7656 60.4489C52.8587 57.8352 48.7658 55.4943 45.0471 52.6166" stroke="#EF4A6B" stroke-width="1.11719" stroke-linecap="round" stroke-linejoin="round"/>
<path d="M66.1738 60.6117C64.8934 60.0727 63.6108 59.516 62.4442 58.7592C60.6867 57.6173 59.2487 56.0575 57.6772 54.6692C56.3509 53.4988 54.9216 52.4405 53.3829 51.5737C51.7064 50.6276 49.9094 49.906 48.2722 48.8918C46.5497 47.8247 45.0373 46.4518 43.4746 45.1604C41.056 43.1649 38.4952 41.3521 35.9366 39.5414" stroke="#EF4A6B" stroke-width="1.11719" stroke-linecap="round" stroke-linejoin="round"/>
<path d="M66.0488 54.8915C63.5887 52.9576 61.7196 50.3813 59.5089 48.1614C58.3555 47.002 57.1057 45.9371 56.007 44.7248C54.8513 43.4488 53.8708 42.0099 52.6145 40.8351C51.4829 39.7768 50.1499 38.9562 48.7557 38.2852" stroke="#EF4A6B" stroke-width="1.11719" stroke-linecap="round" stroke-linejoin="round"/>
<path d="M54.6504 36.2589C56.7406 37.4052 58.4895 39.0728 60.212 40.7229C61.3611 41.823 62.5189 42.934 63.4141 44.2519" stroke="#EF4A6B" stroke-width="1.11719" stroke-linecap="round" stroke-linejoin="round"/>
<path d="M19.2883 -28.8771C18.728 -28.2456 18.6864 -27.3172 18.6754 -26.4724C18.6579 -25.1611 18.6426 -23.8477 18.7783 -22.5452C18.8681 -21.6718 19.0257 -20.8071 19.087 -19.9315C19.1614 -18.8469 19.0804 -17.7556 19.0563 -16.6688C18.9688 -12.7922 19.5772 -8.90023 20.8445 -5.23927C21.755 -2.60575 23.0136 -0.0536662 23.3594 2.71405" stroke="#EF4A6B" stroke-width="1.11719" stroke-linecap="round" stroke-linejoin="round"/>
<path d="M22.3445 -29.491C23.5286 -21.4408 27.5624 -14.0595 29.0573 -6.06216C29.7161 -2.54201 29.8738 1.05072 30.0292 4.63027C30.1277 6.87217 30.224 9.12288 29.9745 11.3538C29.6812 13.9631 28.9129 16.5064 27.8273 18.8935C26.4484 21.923 24.5508 24.7106 22.2438 27.1021" stroke="#EF4A6B" stroke-width="1.11719" stroke-linecap="round" stroke-linejoin="round"/>
<path d="M29.6911 -24.5957C31.8667 -19.1197 34.2677 -13.7339 36.8898 -8.45804C37.7478 -6.73316 38.6342 -5.00165 39.1157 -3.13377C39.56 -1.40669 39.6476 0.39076 39.676 2.17504C39.7592 7.28806 39.3368 12.6167 36.7847 17.0389C34.9659 20.1894 32.195 22.6513 29.4722 25.0538" stroke="#EF4A6B" stroke-width="1.11719" stroke-linecap="round" stroke-linejoin="round"/>
<path d="M39.5007 -15.4896C40.3828 -12.1785 41.9871 -9.11813 43.3003 -5.9566C43.9285 -4.44293 44.4953 -2.89406 44.7886 -1.28139C45.0709 0.263073 45.1016 1.84056 45.1323 3.41143C45.1782 5.84913 45.2176 8.33083 44.5304 10.6673C44.2218 11.7168 43.7687 12.7222 43.4929 13.7826" stroke="#EF4A6B" stroke-width="1.11719" stroke-linecap="round" stroke-linejoin="round"/>
<path d="M31.5905 35.9333C35.3616 35.8321 39.1327 35.7331 42.9061 35.6319C44.1208 35.5989 45.3444 35.5659 46.5306 35.3107C47.9052 35.0159 49.2009 34.4306 50.4507 33.7882C52.368 32.8047 54.2087 31.6761 56.0472 30.5496C57.7566 29.5024 59.4683 28.4508 61.0376 27.2011C63.1825 25.4894 64.5986 23.945 66.3496 21.8285" stroke="#EF4A6B" stroke-width="1.11719" stroke-linecap="round" stroke-linejoin="round"/>
<path d="M67.9102 12.1876C66.8902 13.1887 65.868 14.1897 64.8481 15.1907C63.2722 16.7374 61.681 18.2951 59.8228 19.4831C58.4154 20.383 56.8768 21.0584 55.43 21.8966C52.2433 23.7469 49.5665 26.365 46.4869 28.3935C41.4769 31.6914 35.5148 33.3327 29.544 33.8124" stroke="#EF4A6B" stroke-width="1.11719" stroke-linecap="round" stroke-linejoin="round"/>
<path d="M23.142 29.4914C27.6026 28.0855 32.3981 28.1625 36.9288 27.0053C42.5647 25.5642 47.5353 22.2883 52.3877 19.0673C54.0402 17.9695 55.7036 16.865 57.1372 15.49C58.527 14.1589 59.6827 12.5968 61.0528 11.2438C62.0794 10.2317 63.2197 9.34509 64.3316 8.42986C65.7498 7.2616 67.1243 6.04058 68.4551 4.76892" stroke="#EF4A6B" stroke-width="1.11719" stroke-linecap="round" stroke-linejoin="round"/>
<path d="M68.6191 -6.66943C65.3273 -3.98312 62.0377 -1.29683 58.7458 1.38949C57.6077 2.31793 56.4695 3.24637 55.3949 4.24741C53.8693 5.66427 52.4752 7.22198 50.8971 8.57944C49.4722 9.80269 47.9051 10.8565 46.5087 12.115C44.4032 14.0136 42.3063 17.1576 39.5901 17.943" stroke="#EF4A6B" stroke-width="1.11719" stroke-linecap="round" stroke-linejoin="round"/>
<path d="M33.3848 83.0989C33.2753 82.4191 33.282 81.726 33.2907 81.0352C33.2973 80.3598 33.3038 79.6843 33.3476 79.0111" stroke="#EF4A6B" stroke-width="1.11719" stroke-linecap="round" stroke-linejoin="round"/>
<path d="M33.4219 77.5656C33.3715 77.2576 33.3671 76.943 33.4021 76.635" stroke="#EF4A6B" stroke-width="1.11719" stroke-linecap="round" stroke-linejoin="round"/>
<path d="M19.8066 41.0881C19.5331 41.3323 19.2616 41.5743 18.988 41.8185" stroke="#EF4A6B" stroke-width="1.11719" stroke-linecap="round" stroke-linejoin="round"/>
<path d="M17.8516 43.0308C17.3306 43.6336 16.744 44.1792 16.1071 44.6545" stroke="#EF4A6B" stroke-width="1.11719" stroke-linecap="round" stroke-linejoin="round"/>
<path d="M31.3249 -0.0998535C31.3358 0.109155 31.3445 0.318184 31.3555 0.524993" stroke="#EF4A6B" stroke-width="1.11719" stroke-linecap="round" stroke-linejoin="round"/>
<path d="M41.0215 19.1993C41.8182 18.8165 42.6192 18.4315 43.3415 17.9211C43.6983 17.6681 44.0397 17.382 44.4512 17.2346" stroke="#EF4A6B" stroke-width="1.11719" stroke-linecap="round" stroke-linejoin="round"/>
<path d="M45.8489 16.2116C46.1881 15.9322 46.5427 15.6682 46.9082 15.4261" stroke="#EF4A6B" stroke-width="1.11719" stroke-linecap="round" stroke-linejoin="round"/>
<path d="M50.0215 47.9105C49.3517 47.7697 48.7498 47.4133 48.1611 47.0635" stroke="#EF4A6B" stroke-width="1.11719" stroke-linecap="round" stroke-linejoin="round"/>
<path d="M46.877 46.1879C46.7391 46.1109 46.6012 46.0361 46.4611 45.9591" stroke="#EF4A6B" stroke-width="1.11719" stroke-linecap="round" stroke-linejoin="round"/>
</g>
</g>
<defs>
<clipPath id="clip0_715_2934">
<rect width="84" height="128" fill="white" transform="matrix(0 1 -1 0 1336 0)"/>
</clipPath>
<clipPath id="clip1_715_2934">
<rect width="69" height="63" fill="white" transform="translate(0 155)"/>
</clipPath>
<clipPath id="clip2_715_2934">
<rect width="73" height="89" fill="white" transform="translate(0 1)"/>
</clipPath>
</defs>
</svg>
